%TF.GenerationSoftware,KiCad,Pcbnew,(7.0.0)*%
%TF.CreationDate,2023-03-07T18:29:21-05:00*%
%TF.ProjectId,LeftTEST,4c656674-5445-4535-942e-6b696361645f,rev?*%
%TF.SameCoordinates,Original*%
%TF.FileFunction,Soldermask,Bot*%
%TF.FilePolarity,Negative*%
%FSLAX46Y46*%
G04 Gerber Fmt 4.6, Leading zero omitted, Abs format (unit mm)*
G04 Created by KiCad (PCBNEW (7.0.0)) date 2023-03-07 18:29:21*
%MOMM*%
%LPD*%
G01*
G04 APERTURE LIST*
%ADD10C,1.700000*%
%ADD11C,4.000000*%
%ADD12C,2.200000*%
%ADD13C,1.651000*%
%ADD14R,1.651000X1.651000*%
%ADD15R,1.200000X2.100000*%
%ADD16C,1.200000*%
%ADD17C,3.050000*%
%ADD18C,1.397000*%
%ADD19R,2.100000X1.200000*%
%ADD20R,1.752600X1.752600*%
%ADD21C,1.752600*%
G04 APERTURE END LIST*
D10*
%TO.C,SW30*%
X97275345Y-109001782D03*
D11*
X102355345Y-109001782D03*
D10*
X107435345Y-109001782D03*
D12*
X104895345Y-103921782D03*
X98545345Y-106461782D03*
%TD*%
D13*
%TO.C,D18*%
X168935000Y-50800000D03*
D14*
X176554999Y-50799999D03*
%TD*%
D13*
%TO.C,D14*%
X118135000Y-50800000D03*
D14*
X125754999Y-50799999D03*
%TD*%
D10*
%TO.C,SW32*%
X135342981Y-109028147D03*
D11*
X140422981Y-109028147D03*
D10*
X145502981Y-109028147D03*
D12*
X142962981Y-103948147D03*
X136612981Y-106488147D03*
%TD*%
D13*
%TO.C,D17*%
X156235000Y-50800000D03*
D14*
X163854999Y-50799999D03*
%TD*%
D13*
%TO.C,D5*%
X151155000Y-40640000D03*
D14*
X158774999Y-40639999D03*
%TD*%
D10*
%TO.C,SW14*%
X61587054Y-89931708D03*
D11*
X66667054Y-89931708D03*
D10*
X71747054Y-89931708D03*
D12*
X69207054Y-84851708D03*
X62857054Y-87391708D03*
%TD*%
D10*
%TO.C,SW34*%
X173487927Y-108944219D03*
D11*
X178567927Y-108944219D03*
D10*
X183647927Y-108944219D03*
D12*
X181107927Y-103864219D03*
X174757927Y-106404219D03*
%TD*%
D15*
%TO.C,J2*%
X184194999Y-47002499D03*
X188394999Y-38502499D03*
X188394999Y-41502499D03*
X188394999Y-45502499D03*
D16*
X186295000Y-43702500D03*
X186295000Y-36702500D03*
X184545000Y-43702500D03*
X184545000Y-36702500D03*
%TD*%
D10*
%TO.C,SW4*%
X129055018Y-70819088D03*
D11*
X134135018Y-70819088D03*
D10*
X139215018Y-70819088D03*
D12*
X136675018Y-65739088D03*
X130325018Y-68279088D03*
%TD*%
D13*
%TO.C,D16*%
X143535000Y-50800000D03*
D14*
X151154999Y-50799999D03*
%TD*%
D17*
%TO.C,SW27*%
X59509236Y-102019636D03*
D11*
X59509236Y-117259636D03*
D10*
X66329236Y-109019636D03*
D11*
X71409236Y-109019636D03*
D10*
X76489236Y-109019636D03*
D17*
X83309236Y-102019636D03*
D11*
X83309236Y-117259636D03*
D12*
X73949236Y-103939636D03*
X67599236Y-106479636D03*
%TD*%
D13*
%TO.C,D21*%
X133375000Y-55880000D03*
D14*
X140994999Y-55879999D03*
%TD*%
D10*
%TO.C,*%
X59220000Y-70820000D03*
%TD*%
D13*
%TO.C,D23*%
X158775000Y-55880000D03*
D14*
X166394999Y-55879999D03*
%TD*%
D10*
%TO.C,SW6*%
X167193382Y-70799273D03*
D11*
X172273382Y-70799273D03*
D10*
X177353382Y-70799273D03*
D12*
X174813382Y-65719273D03*
X168463382Y-68259273D03*
%TD*%
D13*
%TO.C,D15*%
X130835000Y-50800000D03*
D14*
X138454999Y-50799999D03*
%TD*%
D10*
%TO.C,SW33*%
X154392072Y-108986183D03*
D11*
X159472072Y-108986183D03*
D10*
X164552072Y-108986183D03*
D12*
X162012072Y-103906183D03*
X155662072Y-106446183D03*
%TD*%
D10*
%TO.C,SW17*%
X106843054Y-89976689D03*
D11*
X111923054Y-89976689D03*
D10*
X117003054Y-89976689D03*
D12*
X114463054Y-84896689D03*
X108113054Y-87436689D03*
%TD*%
D10*
%TO.C,SW2*%
X87160000Y-70820000D03*
D11*
X92240000Y-70820000D03*
D10*
X97320000Y-70820000D03*
D12*
X94780000Y-65740000D03*
X88430000Y-68280000D03*
%TD*%
D11*
%TO.C,SW1*%
X64300000Y-70820000D03*
D12*
X66840000Y-65740000D03*
X60490000Y-68280000D03*
%TD*%
D13*
%TO.C,D4*%
X138455000Y-40640000D03*
D14*
X146074999Y-40639999D03*
%TD*%
D10*
%TO.C,SW45*%
X118725347Y-128173781D03*
D11*
X123805347Y-128173781D03*
D10*
X128885347Y-128173781D03*
D12*
X126345347Y-123093781D03*
X119995347Y-125633781D03*
%TD*%
D10*
%TO.C,SW19*%
X144994617Y-89892728D03*
D11*
X150074617Y-89892728D03*
D10*
X155154617Y-89892728D03*
D12*
X152614617Y-84812728D03*
X146264617Y-87352728D03*
%TD*%
D10*
%TO.C,SW41*%
X97312509Y-128133601D03*
D11*
X102392509Y-128133601D03*
D10*
X107472509Y-128133601D03*
D12*
X104932509Y-123053601D03*
X98582509Y-125593601D03*
%TD*%
D10*
%TO.C,*%
X69380000Y-70820000D03*
%TD*%
%TO.C,SW43*%
X56825381Y-128079055D03*
D11*
X61905381Y-128079055D03*
D10*
X66985381Y-128079055D03*
D12*
X64445381Y-122999055D03*
X58095381Y-125539055D03*
%TD*%
D18*
%TO.C,R1*%
X43180000Y-58420000D03*
X43180000Y-63500000D03*
%TD*%
D13*
%TO.C,D13*%
X105435000Y-50800000D03*
D14*
X113054999Y-50799999D03*
%TD*%
D13*
%TO.C,D20*%
X120675000Y-55880000D03*
D14*
X128294999Y-55879999D03*
%TD*%
D13*
%TO.C,D8D*%
X115595000Y-45720000D03*
D14*
X123214999Y-45719999D03*
%TD*%
D13*
%TO.C,D9*%
X128295000Y-45720000D03*
D14*
X135914999Y-45719999D03*
%TD*%
D13*
%TO.C,D19*%
X107975000Y-55880000D03*
D14*
X115594999Y-55879999D03*
%TD*%
D13*
%TO.C,D10*%
X140995000Y-45720000D03*
D14*
X148614999Y-45719999D03*
%TD*%
D13*
%TO.C,D1*%
X100355000Y-40640000D03*
D14*
X107974999Y-40639999D03*
%TD*%
D13*
%TO.C,D2*%
X113055000Y-40640000D03*
D14*
X120674999Y-40639999D03*
%TD*%
D13*
%TO.C,D12*%
X166395000Y-45720000D03*
D14*
X174014999Y-45719999D03*
%TD*%
D13*
%TO.C,D11*%
X153695000Y-45720000D03*
D14*
X161314999Y-45719999D03*
%TD*%
D13*
%TO.C,D6*%
X163855000Y-40640000D03*
D14*
X171474999Y-40639999D03*
%TD*%
D10*
%TO.C,SW5*%
X148127491Y-70819088D03*
D11*
X153207491Y-70819088D03*
D10*
X158287491Y-70819088D03*
D12*
X155747491Y-65739088D03*
X149397491Y-68279088D03*
%TD*%
D10*
%TO.C,SW31*%
X116314254Y-109042546D03*
D11*
X121394254Y-109042546D03*
D10*
X126474254Y-109042546D03*
D12*
X123934254Y-103962546D03*
X117584254Y-106502546D03*
%TD*%
D13*
%TO.C,D7*%
X102895000Y-45720000D03*
D14*
X110514999Y-45719999D03*
%TD*%
D13*
%TO.C,D22*%
X146075000Y-55880000D03*
D14*
X153694999Y-55879999D03*
%TD*%
D11*
%TO.C,*%
X64300000Y-70820000D03*
%TD*%
D17*
%TO.C,SW46*%
X154750254Y-120969456D03*
D11*
X154750254Y-136209456D03*
D10*
X161570254Y-127969456D03*
D11*
X166650254Y-127969456D03*
D10*
X171730254Y-127969456D03*
D17*
X178550254Y-120969456D03*
D11*
X178550254Y-136209456D03*
D12*
X169190254Y-122889456D03*
X162840254Y-125429456D03*
%TD*%
D10*
%TO.C,SW20*%
X164046109Y-89892728D03*
D11*
X169126109Y-89892728D03*
D10*
X174206109Y-89892728D03*
D12*
X171666109Y-84812728D03*
X165316109Y-87352728D03*
%TD*%
D16*
%TO.C,J2*%
X197078958Y-79471982D03*
X190078958Y-79471982D03*
X197078958Y-81221982D03*
X190078958Y-81221982D03*
D19*
X188278957Y-83321981D03*
X192278957Y-83321981D03*
X195278957Y-83321981D03*
X186778957Y-79121981D03*
%TD*%
D10*
%TO.C,SW44*%
X78268800Y-128121019D03*
D11*
X83348800Y-128121019D03*
D10*
X88428800Y-128121019D03*
D12*
X85888800Y-123041019D03*
X79538800Y-125581019D03*
%TD*%
D10*
%TO.C,SW3*%
X110020000Y-70820000D03*
D11*
X115100000Y-70820000D03*
D10*
X120180000Y-70820000D03*
D12*
X117640000Y-65740000D03*
X111290000Y-68280000D03*
%TD*%
D10*
%TO.C,SW18*%
X125901162Y-89934691D03*
D11*
X130981162Y-89934691D03*
D10*
X136061162Y-89934691D03*
D12*
X133521162Y-84854691D03*
X127171162Y-87394691D03*
%TD*%
D10*
%TO.C,SW16*%
X87811345Y-89928725D03*
D11*
X92891345Y-89928725D03*
D10*
X97971345Y-89928725D03*
D12*
X95431345Y-84848725D03*
X89081345Y-87388725D03*
%TD*%
D13*
%TO.C,D3*%
X125755000Y-40640000D03*
D14*
X133374999Y-40639999D03*
%TD*%
D16*
%TO.C,J2*%
X36543025Y-81941714D03*
X43543025Y-81941714D03*
X36543025Y-80191714D03*
X43543025Y-80191714D03*
D19*
X45343024Y-78091713D03*
X41343024Y-78091713D03*
X38343024Y-78091713D03*
X46843024Y-82291713D03*
%TD*%
D18*
%TO.C,R2*%
X45720000Y-58420000D03*
X45720000Y-63500000D03*
%TD*%
D20*
%TO.C,U1*%
X54609999Y-40411399D03*
D21*
X57150000Y-40868600D03*
X59690000Y-40411400D03*
X62230000Y-40868600D03*
X64770000Y-40411400D03*
X67310000Y-40868600D03*
X69850000Y-40411400D03*
X72390000Y-40868600D03*
X74930000Y-40411400D03*
X77470000Y-40868600D03*
X80010000Y-40411400D03*
X82550000Y-40868600D03*
X82550000Y-55651400D03*
X80010000Y-56108600D03*
X77470000Y-55651400D03*
X74930000Y-56108600D03*
X72390000Y-55651400D03*
X69850000Y-56108600D03*
X67310000Y-55651400D03*
X64770000Y-56108600D03*
X62230000Y-55651400D03*
X59690000Y-56108600D03*
X57150000Y-55651400D03*
X54610000Y-56108600D03*
%TD*%
M02*
