M48
; DRILL file {KiCad (7.0.0)} date Tue Mar  7 18:29:25 2023
; FORMAT={-:-/ absolute / inch / decimal}
; #@! TF.CreationDate,2023-03-07T18:29:25-05:00
; #@! TF.GenerationSoftware,Kicad,Pcbnew,(7.0.0)
; #@! TF.FileFunction,MixedPlating,1,2
FMAT,2
INCH
; #@! TA.AperFunction,Plated,PTH,ViaDrill
T1C0.0157
; #@! TA.AperFunction,Plated,PTH,ComponentDrill
T2C0.0197
; #@! TA.AperFunction,Plated,PTH,ComponentDrill
T3C0.0320
; #@! TA.AperFunction,Plated,PTH,ComponentDrill
T4C0.0390
; #@! TA.AperFunction,Plated,PTH,ComponentDrill
T5C0.0430
; #@! TA.AperFunction,Plated,PTH,ComponentDrill
T6C0.0591
; #@! TA.AperFunction,NonPlated,NPTH,ComponentDrill
T7C0.0472
; #@! TA.AperFunction,NonPlated,NPTH,ComponentDrill
T8C0.0669
; #@! TA.AperFunction,NonPlated,NPTH,ComponentDrill
T9C0.1201
; #@! TA.AperFunction,NonPlated,NPTH,ComponentDrill
T10C0.1575
%
G90
G05
T1
X2.5Y-1.5
X2.607Y-2.4308
X2.7618Y-1.4426
X3.4788Y-2.2149
X4.1207Y-2.2552
X4.2Y-3.1
X4.2Y-3.3
X4.551Y-2.0226
T3
X1.7Y-2.3
X1.7Y-2.5
X1.8Y-2.3
X1.8Y-2.5
T4
X3.951Y-1.6
X4.051Y-1.8
X4.151Y-2.0
X4.251Y-1.6
X4.251Y-2.2
X4.351Y-1.8
X4.451Y-1.6
X4.451Y-2.0
X4.551Y-1.8
X4.551Y-2.2
X4.651Y-2.0
X4.751Y-1.6
X4.751Y-2.2
X4.851Y-1.8
X4.951Y-1.6
X4.951Y-2.0
X5.051Y-1.8
X5.051Y-2.2
X5.151Y-2.0
X5.251Y-1.6
X5.251Y-2.2
X5.351Y-1.8
X5.451Y-1.6
X5.451Y-2.0
X5.551Y-1.8
X5.551Y-2.2
X5.651Y-2.0
X5.751Y-1.6
X5.751Y-2.2
X5.851Y-1.8
X5.951Y-1.6
X5.951Y-2.0
X6.051Y-1.8
X6.051Y-2.2
X6.151Y-2.0
X6.251Y-1.6
X6.251Y-2.2
X6.351Y-1.8
X6.451Y-1.6
X6.451Y-2.0
X6.551Y-1.8
X6.551Y-2.2
X6.651Y-2.0
X6.751Y-1.6
X6.851Y-1.8
X6.951Y-2.0
T5
X2.15Y-1.591
X2.15Y-2.209
X2.25Y-1.609
X2.25Y-2.191
X2.35Y-1.591
X2.35Y-2.209
X2.45Y-1.609
X2.45Y-2.191
X2.55Y-1.591
X2.55Y-2.209
X2.65Y-1.609
X2.65Y-2.191
X2.75Y-1.591
X2.75Y-2.209
X2.85Y-1.609
X2.85Y-2.191
X2.95Y-1.591
X2.95Y-2.209
X3.05Y-1.609
X3.05Y-2.191
X3.15Y-1.591
X3.15Y-2.209
X3.25Y-1.609
X3.25Y-2.191
T6
X2.2872Y-4.9425
X2.3815Y-2.6882
X2.4747Y-3.4406
X2.5372Y-4.8425
X2.6315Y-2.5882
X2.6614Y-4.1921
X2.7247Y-3.3406
X2.9114Y-4.0921
X3.1314Y-4.9441
X3.3814Y-4.8441
X3.4815Y-2.6882
X3.5071Y-3.4405
X3.7315Y-2.5882
X3.7571Y-3.3405
X3.8797Y-4.1914
X3.8812Y-4.9446
X4.1297Y-4.0914
X4.1312Y-4.8446
X4.2564Y-3.4424
X4.3815Y-2.6882
X4.5064Y-3.3424
X4.6293Y-4.193
X4.6315Y-2.5882
X4.7242Y-4.9462
X4.8793Y-4.093
X4.9742Y-4.8462
X5.0067Y-3.4407
X5.1309Y-2.6882
X5.2567Y-3.3407
X5.3785Y-4.1924
X5.3809Y-2.5882
X5.6285Y-4.0924
X5.7584Y-3.4391
X5.8818Y-2.6882
X6.0084Y-3.3391
X6.1284Y-4.1908
X6.1318Y-2.5882
X6.3784Y-4.0908
X6.411Y-4.9382
X6.5085Y-3.4391
X6.6324Y-2.6874
X6.661Y-4.8382
X6.7585Y-3.3391
X6.8802Y-4.1891
X6.8824Y-2.5874
X7.1302Y-4.0891
T7
X1.4387Y-3.1572
X1.4387Y-3.2261
X1.7143Y-3.1572
X1.7143Y-3.2261
X7.2656Y-1.445
X7.2656Y-1.7206
X7.3344Y-1.445
X7.3344Y-1.7206
X7.4834Y-3.1288
X7.4834Y-3.1977
X7.759Y-3.1288
X7.759Y-3.1977
T8
X2.2372Y-5.0425
X2.3315Y-2.7882
X2.4247Y-3.5406
X2.6114Y-4.2921
X2.6372Y-5.0425
X2.7315Y-2.7882
X2.8247Y-3.5406
X3.0114Y-4.2921
X3.0814Y-5.0441
X3.4315Y-2.7882
X3.4571Y-3.5405
X3.4814Y-5.0441
X3.8297Y-4.2914
X3.8312Y-5.0446
X3.8315Y-2.7882
X3.8571Y-3.5405
X4.2064Y-3.5424
X4.2297Y-4.2914
X4.2312Y-5.0446
X4.3315Y-2.7882
X4.5793Y-4.293
X4.6064Y-3.5424
X4.6742Y-5.0462
X4.7315Y-2.7882
X4.9567Y-3.5407
X4.9793Y-4.293
X5.0742Y-5.0462
X5.0809Y-2.7882
X5.3285Y-4.2924
X5.3567Y-3.5407
X5.4809Y-2.7882
X5.7084Y-3.5391
X5.7285Y-4.2924
X5.8318Y-2.7882
X6.0784Y-4.2908
X6.1084Y-3.5391
X6.2318Y-2.7882
X6.361Y-5.0382
X6.4585Y-3.5391
X6.4784Y-4.2908
X6.5824Y-2.7874
X6.761Y-5.0382
X6.8302Y-4.2891
X6.8585Y-3.5391
X6.9824Y-2.7874
X7.2302Y-4.2891
T9
X2.3429Y-4.0165
X3.2799Y-4.0165
X6.0925Y-4.7626
X7.0295Y-4.7626
T10
X2.3429Y-4.6165
X2.4372Y-5.0425
X2.5315Y-2.7882
X2.5315Y-2.7882
X2.6247Y-3.5406
X2.8114Y-4.2921
X3.2799Y-4.6165
X3.2814Y-5.0441
X3.6315Y-2.7882
X3.6571Y-3.5405
X4.0297Y-4.2914
X4.0312Y-5.0446
X4.4064Y-3.5424
X4.5315Y-2.7882
X4.7793Y-4.293
X4.8742Y-5.0462
X5.1567Y-3.5407
X5.2809Y-2.7882
X5.5285Y-4.2924
X5.9084Y-3.5391
X6.0318Y-2.7882
X6.0925Y-5.3626
X6.2784Y-4.2908
X6.561Y-5.0382
X6.6585Y-3.5391
X6.7824Y-2.7874
X7.0295Y-5.3626
X7.0302Y-4.2891
T2
G00X1.4879Y-3.0745
M15
G01X1.5312Y-3.0745
M16
G05
G00X1.606Y-3.0745
M15
G01X1.6493Y-3.0745
M16
G05
G00X1.7635Y-3.0745
M15
G01X1.8068Y-3.0745
M16
G05
G00X1.8226Y-3.2398
M15
G01X1.8659Y-3.2398
M16
G05
G00X7.2518Y-1.8288
M15
G01X7.2518Y-1.8721
M16
G05
G00X7.3752Y-3.115
M15
G01X7.3318Y-3.115
M16
G05
G00X7.4342Y-3.2804
M15
G01X7.3909Y-3.2804
M16
G05
G00X7.4171Y-1.4942
M15
G01X7.4171Y-1.5375
M16
G05
G00X7.4171Y-1.6123
M15
G01X7.4171Y-1.6556
M16
G05
G00X7.4171Y-1.7698
M15
G01X7.4171Y-1.8131
M16
G05
G00X7.5917Y-3.2804
M15
G01X7.5484Y-3.2804
M16
G05
G00X7.7098Y-3.2804
M15
G01X7.6665Y-3.2804
M16
G05
T0
M30
